<?xml version="1.0" encoding="UTF-8"?>
<svg version="1.1" xmlns="http://www.w3.org/2000/svg" width="512" height="512">
<path d="M0 0 C168.96 0 337.92 0 512 0 C512 168.96 512 337.92 512 512 C343.04 512 174.08 512 0 512 C0 343.04 0 174.08 0 0 Z " fill="#4A6AF2" transform="translate(0,0)"/>
<path d="M0 0 C126.72 0 253.44 0 384 0 C384.33 40.26 384.66 80.52 385 122 C407.03503817 151.55527893 407.03503817 151.55527893 435 172 C430.20405137 177.76669361 425.06376127 183.08705415 419.76351929 188.39038086 C418.38186394 189.77860959 418.38186394 189.77860959 416.97229636 191.19488335 C414.43046319 193.7485944 411.88555344 196.29921944 409.34006977 198.84929109 C406.58988287 201.60546655 403.84250742 204.36444238 401.09468079 207.12297058 C394.47106171 213.77102184 387.84257285 220.41420695 381.21319574 227.05651569 C379.34114918 228.93227797 377.46923136 230.80816862 375.59735918 232.68410492 C363.9693583 244.33732311 352.33977297 255.98895748 340.70538902 267.63580322 C338.01581278 270.32830899 335.32625265 273.02083084 332.63671875 275.71337891 C331.96827268 276.38257103 331.2998266 277.05176315 330.61112459 277.74123383 C319.75834089 288.60669914 308.91589129 299.48241721 298.07758133 310.36231816 C286.94927763 321.53297576 275.81163059 332.69424821 264.66474688 343.84636593 C258.40636631 350.10816574 252.15224875 356.37410087 245.9086113 362.65060425 C240.59794964 367.98917615 235.27897425 373.31928042 229.9487233 378.63829678 C227.22791922 381.35389309 224.51140314 384.07345453 221.80554008 386.80394554 C218.87787739 389.75803341 215.93140236 392.69258946 212.98251343 395.62548828 C212.12279415 396.49908965 211.26307486 397.37269102 210.37730348 398.27276516 C209.58927548 399.05022122 208.80124747 399.82767729 207.98933983 400.62869263 C207.31061455 401.30877443 206.63188927 401.98885624 205.93259656 402.68954659 C204 404 204 404 201.90148675 403.83845574 C198.95898415 402.54096672 197.11270253 400.48039447 194.84942627 398.21018982 C194.34373163 397.70705845 193.83803699 397.20392709 193.31701827 396.68554932 C191.6224267 394.99590362 189.93878784 393.2957502 188.25488281 391.59545898 C187.04312991 390.38285998 185.83071626 389.17092096 184.61769104 387.95959473 C181.32409109 384.66685683 178.03983381 381.36493959 174.75714588 378.0613277 C171.32585611 374.61130624 167.88609011 371.16975744 164.44720459 367.72731018 C157.93539716 361.20617198 151.43127592 354.67742293 144.92986465 348.14592177 C137.52832933 340.71087461 130.11829136 333.28432654 122.7075181 325.85848892 C107.46218209 310.58178051 92.22758412 295.29440192 77 280 C81.64279609 270.71440782 90.65909482 264.34090518 98 257 C65.66 256.67 33.32 256.34 0 256 C0 171.52 0 87.04 0 0 Z " fill="#3384F4" transform="translate(0,0)"/>
<path d="M0 0 C4.06533094 1.87432455 6.84846093 4.58045724 9.96191406 7.73486328 C10.5477124 8.32036957 11.13351074 8.90587585 11.73706055 9.50912476 C13.66802839 11.44148356 15.59181947 13.38082516 17.515625 15.3203125 C18.85468611 16.66310456 20.19419009 18.00545513 21.53411865 19.34738159 C25.05664429 22.87753717 28.57312203 26.41365806 32.08837891 29.9510498 C35.67768551 33.56082851 39.27267256 37.16494015 42.8671875 40.76953125 C49.91703318 47.84081558 56.96050337 54.91841413 64 62 C59.20405137 67.76669361 54.06376127 73.08705415 48.76351929 78.39038086 C47.38186394 79.77860959 47.38186394 79.77860959 45.97229636 81.19488335 C43.43046319 83.7485944 40.88555344 86.29921944 38.34006977 88.84929109 C35.58988287 91.60546655 32.84250742 94.36444238 30.09468079 97.12297058 C23.47106171 103.77102184 16.84257285 110.41420695 10.21319574 117.05651569 C8.34114918 118.93227797 6.46923136 120.80816862 4.59735918 122.68410492 C-7.0306417 134.33732311 -18.66022703 145.98895748 -30.29461098 157.63580322 C-32.98418722 160.32830899 -35.67374735 163.02083084 -38.36328125 165.71337891 C-39.03172732 166.38257103 -39.7001734 167.05176315 -40.38887541 167.74123383 C-51.24165911 178.60669914 -62.08410871 189.48241721 -72.92241867 200.36231816 C-84.05072237 211.53297576 -95.18836941 222.69424821 -106.33525312 233.84636593 C-112.59363369 240.10816574 -118.84775125 246.37410087 -125.0913887 252.65060425 C-130.40205036 257.98917615 -135.72102575 263.31928042 -141.0512767 268.63829678 C-143.77208078 271.35389309 -146.48859686 274.07345453 -149.19445992 276.80394554 C-152.12212261 279.75803341 -155.06859764 282.69258946 -158.01748657 285.62548828 C-158.87720585 286.49908965 -159.73692514 287.37269102 -160.62269652 288.27276516 C-161.41072452 289.05022122 -162.19875253 289.82767729 -163.01066017 290.62869263 C-163.68938545 291.30877443 -164.36811073 291.98885624 -165.06740344 292.68954659 C-167 294 -167 294 -169.09851325 293.83845574 C-172.04101585 292.54096672 -173.88729747 290.48039447 -176.15057373 288.21018982 C-176.90911569 287.45549277 -176.90911569 287.45549277 -177.68298173 286.68554932 C-179.3775733 284.99590362 -181.06121216 283.2957502 -182.74511719 281.59545898 C-183.95687009 280.38285998 -185.16928374 279.17092096 -186.38230896 277.95959473 C-189.67590891 274.66685683 -192.96016619 271.36493959 -196.24285412 268.0613277 C-199.67414389 264.61130624 -203.11390989 261.16975744 -206.55279541 257.72731018 C-213.06460284 251.20617198 -219.56872408 244.67742293 -226.07013535 238.14592177 C-233.47167067 230.71087461 -240.88170864 223.28432654 -248.2924819 215.85848892 C-263.53781791 200.58178051 -278.77241588 185.29440192 -294 170 C-292.14580631 165.99331831 -289.51143262 163.20885339 -286.42041016 160.11401367 C-285.85108261 159.53636261 -285.28175507 158.95871155 -284.69517517 158.36355591 C-282.81523758 156.45955891 -280.92775913 154.56327504 -279.0390625 152.66796875 C-277.72863149 151.34857236 -276.41827897 150.02909802 -275.10800171 148.70954895 C-272.36282948 145.94789806 -269.61330336 143.1906618 -266.86132812 140.43579102 C-263.3296186 136.89868148 -259.81436884 133.34567923 -256.30283546 129.78855419 C-253.60384338 127.05988736 -250.89373445 124.34247596 -248.18037033 121.62810707 C-246.8788722 120.32239198 -245.58151205 119.01253904 -244.28834915 117.69856834 C-242.48324412 115.86673317 -240.66315216 114.05122728 -238.83837891 112.23901367 C-238.30420853 111.690009 -237.77003815 111.14100433 -237.21968079 110.57536316 C-233.62871359 107.0546522 -233.62871359 107.0546522 -230.99801636 106.82597351 C-227.95357679 108.61487413 -225.62712715 111.02620816 -223.19335938 113.54541016 C-222.62373978 114.12262314 -222.05412018 114.69983612 -221.46723938 115.29454041 C-220.23246611 116.54741389 -219.00110726 117.80365958 -217.77278137 119.06285477 C-215.83001627 121.0531321 -213.87723366 123.03304829 -211.92126465 125.01034546 C-206.36254737 130.6333196 -200.82235269 136.27438468 -195.28955078 141.92285156 C-191.90435753 145.37738638 -188.50719962 148.81977822 -185.10249329 152.25507736 C-183.80587272 153.56851448 -182.51409033 154.88674563 -181.22721863 156.20973587 C-179.43149155 158.05565338 -177.62109809 159.88589721 -175.80664062 161.71337891 C-175.27561234 162.26709671 -174.74458405 162.82081451 -174.19746399 163.39131165 C-172.56758118 165.07142757 -172.56758118 165.07142757 -170 167 C-166.79888119 166.67880911 -165.14800807 165.5222105 -162.91532516 163.28446865 C-162.32911731 162.70423394 -161.74290945 162.12399922 -161.13893771 161.52618164 C-160.50469166 160.88319706 -159.87044561 160.24021249 -159.21697998 159.57774353 C-158.53569259 158.89901941 -157.8544052 158.2202953 -157.15247273 157.52100378 C-154.86365803 155.23714385 -152.5857538 152.94270114 -150.30761719 150.64819336 C-148.67222424 149.01195451 -147.03617103 147.37637535 -145.39950562 145.7414093 C-140.9509922 141.29375869 -136.51180662 136.83690092 -132.07419491 132.37837672 C-127.43772745 127.72319013 -122.7927963 123.07646464 -118.14874268 118.42884827 C-110.35253676 110.62486905 -102.56209268 102.81517041 -94.77539062 95.00170898 C-86.7548165 86.95360048 -78.73109951 78.90864687 -70.703125 70.86791992 C-70.20833463 70.37234138 -69.71354426 69.87676284 -69.20376024 69.36616676 C-66.72153858 66.88003001 -64.2392549 64.3939552 -61.75694036 61.90791118 C-41.16166901 41.28153648 -20.57740055 20.64420279 0 0 Z " fill="#FCFDFE" transform="translate(371,110)"/>
<path d="M0 0 C42.24 0 84.48 0 128 0 C128 84.48 128 168.96 128 256 C85.76 256 43.52 256 0 256 C0 171.52 0 87.04 0 0 Z " fill="#6840E9" transform="translate(384,256)"/>
<path d="M0 0 C84.48 0 168.96 0 256 0 C256 42.24 256 84.48 256 128 C171.52 128 87.04 128 0 128 C0 85.76 0 43.52 0 0 Z " fill="#2196F3" transform="translate(0,0)"/>
<path d="M0 0 C42.24 0 84.48 0 128 0 C128 84.48 128 168.96 128 256 C85.76 256 43.52 256 0 256 C-0.33 246.43 -0.66 236.86 -1 227 C-1.66 226.67 -2.32 226.34 -3 226 C14.49 208.51 31.98 191.02 50 173 C45.06234694 166.87840174 45.06234694 166.87840174 39.27978516 163.10229492 C22.61530316 153.80112883 5.92200401 140.89034816 0 122 C-2.13000644 112.11555033 -2.57043167 102.018533 -2.8984375 91.94140625 C-2.93965351 90.71574385 -2.98086952 89.49008144 -3.0233345 88.22727776 C-3.77406677 58.86825205 -1.37850101 29.19915776 0 0 Z " fill="#3580F2" transform="translate(384,0)"/>
<path d="M0 0 C42.24 0 84.48 0 128 0 C128 42.24 128 84.48 128 128 C85.76 128 43.52 128 0 128 C0 85.76 0 43.52 0 0 Z " fill="#2196F3" transform="translate(256,384)"/>
<path d="M0 0 C42.24 0 84.48 0 128 0 C128 42.24 128 84.48 128 128 C85.76 128 43.52 128 0 128 C0 85.76 0 43.52 0 0 Z " fill="#2196F3" transform="translate(0,384)"/>
<path d="M0 0 C42.24 0 84.48 0 128 0 C128 39.93 128 79.86 128 121 C120.125 114.25 120.125 114.25 117 111 C113.86915748 112.35138016 112.18514638 113.72028355 110.13328552 116.42506409 C105.30722284 122.30706207 100.66009505 127.91109092 92.87063599 129.33297729 C86.94307793 129.91642745 81.03926229 129.69435012 75.09765625 129.46484375 C73.16701782 129.44273196 71.23628878 129.42746472 69.30554199 129.41906738 C62.22313807 129.34108436 55.14267148 129.13166089 48.0625 128.9375 C32.201875 128.628125 16.34125 128.31875 0 128 C0 85.76 0 43.52 0 0 Z " fill="#4770F5" transform="translate(256,0)"/>
<path d="M0 0 C39.93 0 79.86 0 121 0 C121 42.24 121 84.48 121 128 C78.76 128 36.52 128 -7 128 C-7.33 118.43 -7.66 108.86 -8 99 C-8.66 98.67 -9.32 98.34 -10 98 C7.49 80.51 24.98 63.02 43 45 C38.09206362 39.24950219 38.09206362 39.24950219 32.92236328 33.82470703 C32.18204865 33.08769562 31.44173401 32.3506842 30.6789856 31.59133911 C29.90062347 30.82127533 29.12226135 30.05121155 28.3203125 29.2578125 C27.50754852 28.44883514 26.69478455 27.63985779 25.85739136 26.80636597 C23.28234684 24.24346336 20.70407654 21.68384471 18.125 19.125 C14.70811619 15.73459389 11.29447722 12.34096941 7.8828125 8.9453125 C6.69705124 7.77199875 6.69705124 7.77199875 5.48733521 6.57498169 C4.76593353 5.85688324 4.04453186 5.13878479 3.30126953 4.39892578 C2.66206573 3.7649588 2.02286194 3.13099182 1.36428833 2.47781372 C0 1 0 1 0 0 Z " fill="#2196F3" transform="translate(391,128)"/>
<path d="M0 0 C0 52.14 0 104.28 0 158 C-42.24 158 -84.48 158 -128 158 C-128.33 148.43 -128.66 138.86 -129 129 C-129.66 128.67 -130.32 128.34 -131 128 C-114.49913866 111.45246377 -97.99258823 94.91062155 -81.47920513 78.37558079 C-73.81227397 70.69832732 -66.14723117 63.01920596 -58.48657227 55.33569336 C-51.81126769 48.64048412 -45.13248115 41.94877166 -38.44945079 35.2612738 C-34.90940765 31.71861832 -31.37115948 28.17421023 -27.83707237 24.62561226 C-24.51311877 21.28812093 -21.18454256 17.95531219 -17.85230637 14.626091 C-16.62787718 13.40110994 -15.40517109 12.17440384 -14.18429375 10.9458828 C-12.52148455 9.27317203 -10.85267578 7.60668944 -9.18217468 5.94166565 C-8.45405682 5.20480926 -8.45405682 5.20480926 -7.7112295 4.45306689 C-3.21825881 0 -3.21825881 0 0 0 Z " fill="#387DF1" transform="translate(384,226)"/>
<path d="M0 0 C3.42482707 1.61776117 5.65690522 3.42343244 8.328125 6.1328125 C9.12734375 6.93847656 9.9265625 7.74414062 10.75 8.57421875 C11.9875 9.83685547 11.9875 9.83685547 13.25 11.125 C14.09046875 11.97449219 14.9309375 12.82398438 15.796875 13.69921875 C17.86915683 15.79504923 19.93662393 17.89540713 22 20 C17.66795654 25.17424685 13.12663287 30.02383639 8.35800171 34.79589844 C7.60840734 35.54987506 6.85881297 36.30385168 6.08650362 37.08067608 C3.58786687 39.59260949 1.08571518 42.10101042 -1.41650391 44.609375 C-3.21400833 46.41478681 -5.01133139 48.22037921 -6.80848694 50.02613831 C-12.18654949 55.42806759 -17.5689173 60.8256907 -22.9524532 66.22216463 C-24.47299893 67.74642772 -25.99341679 69.27081824 -27.51378965 70.79525375 C-36.96195536 80.2686337 -46.41170613 89.74042939 -55.86625099 99.20744324 C-58.05050197 101.39462364 -60.23473678 103.58182018 -62.41894531 105.76904297 C-62.96178556 106.31262927 -63.50462582 106.85621557 -64.06391577 107.41627419 C-72.8797465 116.24478997 -81.68523207 125.08355087 -90.48659153 133.92649102 C-99.5266304 143.00888774 -108.57601162 152.08189069 -117.63463724 161.14575005 C-122.71930626 166.23383738 -127.7997023 171.32604052 -132.86961746 176.42883301 C-137.63043487 181.22047463 -142.40368883 185.99935677 -147.1858654 190.76969719 C-148.94304454 192.52665427 -150.69591233 194.28793489 -152.44422722 196.05371284 C-154.82216455 198.45411373 -157.2148061 200.83879273 -159.61196899 203.2199707 C-160.65641818 204.28524302 -160.65641818 204.28524302 -161.72196734 205.37203598 C-162.36369273 206.00318943 -163.00541812 206.63434288 -163.66658974 207.28462219 C-164.21772898 207.83711797 -164.76886823 208.38961374 -165.33670866 208.95885181 C-167 210 -167 210 -169.09851325 209.75646454 C-171.46395041 208.81542757 -172.7603318 207.60879709 -174.55609131 205.80467224 C-175.24313644 205.1217511 -175.93018158 204.43882996 -176.63804626 203.73521423 C-177.75258934 202.60449242 -177.75258934 202.60449242 -178.88964844 201.45092773 C-180.07558342 200.26564987 -180.07558342 200.26564987 -181.28547668 199.056427 C-183.90061496 196.4391964 -186.50496315 193.81149491 -189.109375 191.18359375 C-190.91904388 189.36833053 -192.72937563 187.55372792 -194.54034424 185.73976135 C-198.82048033 181.44933575 -203.09386673 177.15229778 -207.36406636 172.85199076 C-212.22633696 167.95618523 -217.09713136 163.06889802 -221.96866179 158.18230903 C-231.98862364 148.13099156 -241.99782939 138.06901963 -252 128 C-250.64979094 125.18851676 -249.46693577 123.24744768 -247.13671875 121.16015625 C-246.57919922 120.65419922 -246.02167969 120.14824219 -245.44726562 119.62695312 C-244.86654297 119.11068359 -244.28582031 118.59441406 -243.6875 118.0625 C-242.54466469 117.03355994 -241.40272567 116.00362346 -240.26171875 114.97265625 C-239.43486572 114.23039795 -239.43486572 114.23039795 -238.59130859 113.47314453 C-237.07389617 112.06840894 -235.6385772 110.61252823 -234.20703125 109.12109375 C-232 107 -232 107 -230 107 C-225.62472863 111.07378208 -221.74700234 115.60942965 -217.79296875 120.0859375 C-215.77624343 122.27295267 -213.6378936 124.20560061 -211.37133789 126.13134766 C-206.76563008 130.13589264 -202.51995828 134.44077529 -198.265625 138.8125 C-196.62429042 140.4810518 -194.98234587 142.14900376 -193.33984375 143.81640625 C-190.77730315 146.42243838 -188.21884773 149.03202498 -185.67041016 151.65185547 C-183.19258185 154.19592322 -180.69943796 156.72408549 -178.203125 159.25 C-177.43953674 160.04253174 -176.67594849 160.83506348 -175.88922119 161.65161133 C-175.17457703 162.36986084 -174.45993286 163.08811035 -173.72363281 163.828125 C-173.09934387 164.4665332 -172.47505493 165.10494141 -171.83184814 165.76269531 C-170.09757519 167.22889665 -170.09757519 167.22889665 -168.07830167 166.74705225 C-165.75965157 165.91360598 -164.64741149 165.02047964 -162.91532516 163.28446865 C-162.03601338 162.41411658 -162.03601338 162.41411658 -161.13893771 161.52618164 C-160.50469166 160.88319706 -159.87044561 160.24021249 -159.21697998 159.57774353 C-158.53569259 158.89901941 -157.8544052 158.2202953 -157.15247273 157.52100378 C-154.86365803 155.23714385 -152.5857538 152.94270114 -150.30761719 150.64819336 C-148.67222424 149.01195451 -147.03617103 147.37637535 -145.39950562 145.7414093 C-140.9509922 141.29375869 -136.51180662 136.83690092 -132.07419491 132.37837672 C-127.43772745 127.72319013 -122.7927963 123.07646464 -118.14874268 118.42884827 C-110.35253676 110.62486905 -102.56209268 102.81517041 -94.77539062 95.00170898 C-86.7548165 86.95360048 -78.73109951 78.90864687 -70.703125 70.86791992 C-70.20833463 70.37234138 -69.71354426 69.87676284 -69.20376024 69.36616676 C-66.72153858 66.88003001 -64.2392549 64.3939552 -61.75694036 61.90791118 C-41.16166901 41.28153648 -20.57740055 20.64420279 0 0 Z " fill="#4C6DF3" transform="translate(371,152)"/>
<path d="M0 0 C3.42482707 1.61776117 5.65690522 3.42343244 8.328125 6.1328125 C9.12734375 6.93847656 9.9265625 7.74414062 10.75 8.57421875 C11.575 9.41597656 12.4 10.25773438 13.25 11.125 C14.09046875 11.97449219 14.9309375 12.82398438 15.796875 13.69921875 C17.86915683 15.79504923 19.93662393 17.89540713 22 20 C16.2573037 27.01944949 9.81176392 33.32903117 3.40112305 39.72827148 C2.1208818 41.00986928 0.84085306 42.29167938 -0.4389801 43.57368469 C-3.89906001 47.03830598 -7.36227427 50.49977795 -10.82621408 53.96053958 C-14.45206413 57.58385228 -18.07546747 61.20961044 -21.69926453 64.8349762 C-27.77761171 70.91513965 -33.85805806 76.99319785 -39.93969727 83.07006836 C-46.9796828 90.10459762 -54.01603879 97.14274197 -61.05054885 104.18274635 C-67.090412 110.22713857 -73.13221047 116.26959111 -79.17564934 122.31040817 C-82.78553505 125.91873185 -86.39473444 129.52773502 -90.00219154 133.13848686 C-93.38736568 136.52653719 -96.77495276 139.91215579 -100.16446495 143.29586601 C-101.41143124 144.54150398 -102.65753612 145.78800492 -103.90274048 147.03540421 C-105.59447621 148.72984823 -107.28922232 150.42122056 -108.9848175 152.11180115 C-109.48363522 152.61284959 -109.98245294 153.11389803 -110.49638635 153.63012975 C-113.88584921 157 -113.88584921 157 -115 157 C-115.19875748 151.45007971 -115.34338653 145.90225847 -115.43945312 140.34960938 C-115.47952119 138.46382538 -115.53399497 136.57828739 -115.60351562 134.69335938 C-116.16847702 118.97413926 -116.16847702 118.97413926 -113.2890625 114.109375 C-111.15625 112.03125 -111.15625 112.03125 -109.02539062 110.51757812 C-106.85623709 109.09589799 -106.85623709 109.09589799 -105.64272594 106.68949604 C-103.91086126 103.85406069 -102.04050431 101.79432697 -99.69099426 99.45048523 C-98.37220024 98.12756721 -98.37220024 98.12756721 -97.02676392 96.77792358 C-96.05545163 95.8136883 -95.0840434 94.84954967 -94.11254883 93.88549805 C-93.08705908 92.86057281 -92.06201026 91.83520625 -91.03736877 90.80943298 C-88.26110337 88.03259462 -85.47872226 85.26195867 -82.69519258 82.4924047 C-79.78480644 79.59453537 -76.88009676 76.6909875 -73.97477722 73.78804016 C-68.47523676 68.29471166 -62.9706187 62.80650062 -57.46415299 57.32011491 C-51.19423157 51.07256128 -44.92999966 44.81931623 -38.66623652 38.56558931 C-25.78380646 25.70405484 -12.89425749 12.84967637 0 0 Z " fill="#3881F2" transform="translate(371,152)"/>
<path d="M0 0 C14.85 0 29.7 0 45 0 C40.56189036 5.17779459 36.13157277 10.13919954 31.375 15 C30.72015625 15.69222656 30.0653125 16.38445312 29.390625 17.09765625 C28.75382812 17.74605469 28.11703125 18.39445312 27.4609375 19.0625 C26.89165527 19.65160156 26.32237305 20.24070312 25.73583984 20.84765625 C24 22 24 22 22.08154297 21.9609375 C19.21908666 20.63949391 17.44972233 18.80319056 15.234375 16.5625 C13.90019531 15.22058594 13.90019531 15.22058594 12.5390625 13.8515625 C11.61867187 12.91054688 10.69828125 11.96953125 9.75 11 C8.8053227 10.04884787 7.86001679 9.09831963 6.9140625 8.1484375 C0 1.15374453 0 1.15374453 0 0 Z " fill="#4C6FF4" transform="translate(180,256)"/>
<path d="M0 0 C6.75 5.625 6.75 5.625 9 9 C7.6905332 10.33631236 6.37734515 11.66897925 5.0625 13 C3.96615234 14.11375 3.96615234 14.11375 2.84765625 15.25 C1 17 1 17 0 17 C0 11.39 0 5.78 0 0 Z " fill="#299AF3" transform="translate(384,164)"/>
<path d="M0 0 C0 0.66 0 1.32 0 2 C-1.36328125 3.33984375 -1.36328125 3.33984375 -3.3125 4.9375 C-8.86343569 9.6443757 -13.89574083 14.81840357 -19 20 C-19.66 20.66 -20.32 21.32 -21 22 C-21 18 -21 18 -19.68652344 16.32421875 C-18.78208496 15.51404297 -18.78208496 15.51404297 -17.859375 14.6875 C-17.20066406 14.08679688 -16.54195313 13.48609375 -15.86328125 12.8671875 C-15.16589844 12.25101562 -14.46851562 11.63484375 -13.75 11 C-12.39020372 9.7712994 -11.03081738 8.54214495 -9.671875 7.3125 C-9.03056641 6.74015625 -8.38925781 6.1678125 -7.72851562 5.578125 C-6.31790522 4.29024567 -4.96909107 2.93495502 -3.640625 1.5625 C-2 0 -2 0 0 0 Z " fill="#6385F6" transform="translate(141,259)"/>
</svg>
